<svg xmlns="http://www.w3.org/2000/svg" width="64" height="64" viewBox="0 0 64 64">
  <path id="Ellipse_49" data-name="Ellipse 49" d="M64,32A32,32,0,1,1,32,0,32,32,0,0,1,64,32Z" fill="#ffccd5"/>
  <g id="Ellipse_50" data-name="Ellipse 50" transform="translate(32)" fill="#ff8fa2" stroke-miterlimit="10">
    <path d="M 29.43511581420898 39.98681259155273 L 1.5 30.91018104553223 L 1.5 1.537461876869202 C 5.784636497497559 1.751266598701477 10.0242338180542 2.876634836196899 13.84671020507812 4.824300289154053 C 18.11503982543945 6.999130249023438 21.85939025878906 10.19713020324707 24.67495918273926 14.07256031036377 C 27.49068069458008 17.94804954528809 29.37508010864258 22.49737930297852 30.12446975708008 27.22875022888184 C 30.79559135437012 31.46602630615234 30.55578422546387 35.84585952758789 29.43511581420898 39.98681259155273 Z" stroke="none"/>
    <path d="M 3 3.157382965087891 L 3 29.82036590576172 L 28.35800552368164 38.05964660644531 C 29.09744262695312 34.58454132080078 29.19872856140137 30.97252082824707 28.64293670654297 27.46341323852539 C 27.93040084838867 22.96472549438477 26.13867568969727 18.63912582397461 23.46142578125 14.9542121887207 C 20.78432464599609 11.26939964294434 17.22413635253906 8.228687286376953 13.16572570800781 6.160812377929688 C 10.0001220703125 4.547847747802734 6.533548355102539 3.527999877929688 3 3.157382965087891 M 0 0 C 5.049900054931641 0 10.02820014953613 1.195175170898438 14.52770042419434 3.487789154052734 C 19.02719879150391 5.780410766601562 22.9202995300293 9.105388641357422 25.88850021362305 13.1909008026123 C 28.8568000793457 17.27639961242676 30.81599998474121 22.00629997253418 31.60599899291992 26.99410057067871 C 32.39599990844727 31.98189926147461 31.99430084228516 37.08580017089844 30.43379974365234 41.88850021362305 L 0 32 L 0 0 Z" stroke="none" fill="#ff8fa2"/>
  </g>
  <text id="_3" data-name="3" transform="translate(32 40)" fill="#fff" font-size="24" font-family="SegoeUI, Segoe UI"><tspan x="-19.406" y="0">126</tspan></text>
</svg>
