<svg xmlns="http://www.w3.org/2000/svg" xmlns:xlink="http://www.w3.org/1999/xlink" width="424.985" height="198.162" viewBox="0 0 424.985 198.162">
  <defs>
    <clipPath id="clip-path">
      <path id="Shape" d="M107.574,76.339,68.467,59.718l-2.924-5.1L58.808,73.483,29.159,62.422a13.523,13.523,0,0,1-8.686-10.957l-.6-4.689L0,34.631l.047-.067c1.812-2.48,11.039-15.059,14.73-19.145A53.944,53.944,0,0,1,27.037,5.254,35.609,35.609,0,0,1,45.254,0,36.518,36.518,0,0,1,61.666,4.117c3.2,1.6,6.442,4.661,9.645,9.094a83.762,83.762,0,0,1,7.554,13.161,143.474,143.474,0,0,1,6.688,16.988L114.9,56.7l-7.328,19.634ZM57.968,41.424l-5.273,6.434,11.43,4.294Z" fill="#fff" opacity="0"/>
    </clipPath>
    <clipPath id="clip-path-2">
      <path id="Path" d="M11.355,0,14.5,11.807l10.46,1.2-4.039,8.676L11.82,29.2,2.658,28.46,0,21l1.475-9.227Z" opacity="0"/>
    </clipPath>
  </defs>
  <g id="Illustration" transform="translate(-15.016 -68.72)">
    <path id="Path-2" data-name="Path" d="M29.989,133.212,76.781,86.446a28.085,28.085,0,0,0,7.888-15.532L79.555,32.3V72.924l-53,59.368h82.007L136.8,86.8a24.889,24.889,0,0,0-.838-27.508l-23.7-33.425L69.926,0,60.8,14.3a37.829,37.829,0,0,0-5.857,18L52.979,64.152,0,118.674Z" transform="translate(21.446 125.709)" fill="#fff"/>
    <path id="Shape-2" data-name="Shape" d="M107.574,76.339,68.467,59.718l-2.924-5.1L58.808,73.483,29.159,62.422a13.523,13.523,0,0,1-8.686-10.957l-.6-4.689L0,34.631l.047-.067c1.812-2.48,11.039-15.059,14.73-19.145A53.944,53.944,0,0,1,27.037,5.254,35.609,35.609,0,0,1,45.254,0,36.518,36.518,0,0,1,61.666,4.117c3.2,1.6,6.442,4.661,9.645,9.094a83.762,83.762,0,0,1,7.554,13.161,143.474,143.474,0,0,1,6.688,16.988L114.9,56.7l-7.328,19.634ZM57.968,41.424l-5.273,6.434,11.43,4.294Z" transform="translate(91.299 91.026)" fill="#fff"/>
    <g id="Clipped" transform="translate(91.299 91.026)">
      <path id="Shape-3" data-name="Shape" d="M52.7,47.858l11.43,4.294L57.968,41.424Z" fill="#fff" opacity="0"/>
    </g>
    <path id="Path-3" data-name="Path" d="M15.388,9.7.434,1.116l.5-.867L15.886,8.832l.434.248-.5.868ZM0,.868.5,0,.932.249l-.5.867Z" transform="translate(92.567 125.193)" fill="#6a5ae0"/>
    <path id="Path-4" data-name="Path" d="M130.874,0,36.265,88.324H0L94.612,0Z" transform="translate(309.126 178.558)" fill="#7f75e1"/>
    <path id="Path-5" data-name="Path" d="M99.043,106.092,0,0H33.063L132.1,106.092Z" transform="translate(305.204 71.296)" fill="#7f75e1"/>
    <path id="Shape-4" data-name="Shape" d="M137.492,108.434l0,0h-36.26L0,0H36.265L137.49,108.432ZM5.388,2.342l96.857,103.75H132.1L35.248,2.342Z" transform="translate(302.51 70.126)" fill="#9087e5"/>
    <path id="Path-6" data-name="Path" d="M6.135,0s8.008,3.358,11.521,7.318S23.378,19.8,23.378,19.8,2.052,22.494,0,3.157" transform="translate(197.916 150.684)" fill="#ffccd7"/>
    <path id="Path-7" data-name="Path" d="M13.6,0,0,13.818l12.637,7.573H51.593L30.852,10.354Z" transform="translate(15.016 245.491)" fill="#162c56"/>
    <path id="Path-8" data-name="Path" d="M8.7,0,0,17.344H49.794L29.053,6.307Z" transform="translate(96.581 249.538)" fill="#162c56"/>
    <path id="Path-9" data-name="Path" d="M1.166,25.826a5,5,0,0,1,.626-7.043L22.847,1.166l6.417,7.67L8.209,26.452a5,5,0,0,1-7.043-.625ZM22.847,1.166a5,5,0,0,1,6.417,7.67Z" transform="translate(146.407 76.099)" fill="#ffccd7"/>
    <path id="Path-10" data-name="Path" d="M5.883,28.873l1.272.718a11.56,11.56,0,0,0,16.619-6.348l2.707-7.964A11.558,11.558,0,0,0,21.1,1.428h0a11.56,11.56,0,0,0-15.7,4.564L1.428,13.24A11.558,11.558,0,0,0,5.883,28.873Z" transform="translate(152.304 73.965)" fill="#ffccd7"/>
    <path id="Path-11" data-name="Path" d="M5.078,10.893l.4-.06a4.049,4.049,0,0,0,3.4-4.611L8.45,3.443A4.049,4.049,0,0,0,3.839.046l-.4.06a4.049,4.049,0,0,0-3.4,4.611L.468,7.5A4.049,4.049,0,0,0,5.078,10.893Z" transform="translate(150.199 81.156)" fill="#ffccd7"/>
    <path id="Path-12" data-name="Path" d="M0,0,1.732,4.645Z" transform="translate(152.991 84.459)" fill="#0c092a" stroke="#0c092a" stroke-linecap="square" stroke-miterlimit="10" stroke-width="1"/>
    <path id="Path-13" data-name="Path" d="M2.791,7.582.481,6.928l.272-.962,1.831.517,1.732-6,.96.277L3.407,7.239l-.139.478ZM0,6.792.272,5.83l.481.136-.272.962ZM4.316.481,4.455,0l.96.277L5.277.758Z" transform="translate(167.825 89.348)" fill="#0c092a"/>
    <path id="Path-14" data-name="Path" d="M3.222,21.013l7.74-9.94L12.8,8.711a9.593,9.593,0,0,0,1.561,2.746c2.411,3.007,12.112,6.33,16.216.281C33.921,6.8,26.892,7.476,24.106,5.9,19.732,3.416,17.682-.646,9.945.087.674.953,0,12.459,0,12.459S3.867,12.581,3.222,21.013Z" transform="translate(154.195 68.72)" fill="#24272d"/>
    <path id="Path-15" data-name="Path" d="M2.952,3.2,0,0,.127,5.516Z" transform="translate(154 97.9)" fill="rgba(0,0,0,0.3)"/>
    <path id="Path-16" data-name="Path" d="M1.189,2.377A1.189,1.189,0,1,0,0,1.189,1.189,1.189,0,0,0,1.189,2.377Z" transform="translate(167.755 88.261)" fill="#0c092a"/>
    <path id="Path-17" data-name="Path" d="M1.189,2.377A1.189,1.189,0,1,0,0,1.189,1.189,1.189,0,0,0,1.189,2.377Z" transform="translate(174.28 91.14)" fill="#0c092a"/>
    <path id="Path-18" data-name="Path" d="M195.838,108.432l-94.612,88.324L0,88.326,94.609,0Z" transform="translate(207.9 70.126)" fill="#9087e5"/>
    <path id="Path-19" data-name="Path" d="M.851,9.394A2,2,0,0,1,.364,6.608L4.411.851l3.272,2.3L3.637,8.908a2,2,0,0,1-2.786.486ZM4.411.851a2,2,0,1,1,3.272,2.3Z" transform="translate(162.608 142.411)" fill="#c4d0fb"/>
    <path id="Path-20" data-name="Path" d="M11.355,0,14.5,11.807l10.46,1.2-4.039,8.676L11.82,29.2,2.658,28.46,0,21l1.475-9.227Z" transform="translate(165.763 116.284)" fill="#9087e5"/>
    <g id="Clipped-3" data-name="Clipped" transform="translate(165.763 116.284)">
      <path id="Path-21" data-name="Path" d="M11.355,0,14.5,11.807l10.46,1.2-4.039,8.676L11.82,29.2,2.658,28.46,0,21l1.475-9.227Z" opacity="0"/>
    </g>
    <path id="Path-22" data-name="Path" d="M4.344,35.328h0C1.032,33.175-.175,29.144.02,24.968a27.968,27.968,0,0,1,4.727-13.51L8.1,13.638A24,24,0,0,0,4.016,25.155c-.162,3.461.879,5.76,2.508,6.819s4.153,1.076,7.25-.477a24.009,24.009,0,0,0,8.867-8.41l3.353,2.18a27.958,27.958,0,0,1-10.427,9.8,14.328,14.328,0,0,1-6.325,1.653A8.845,8.845,0,0,1,4.344,35.328Zm18.3-12.24a24,24,0,0,0,4.084-11.518c.162-3.46-.879-5.76-2.508-6.818s-4.154-1.077-7.25.477A23.994,23.994,0,0,0,8.1,13.638l-3.353-2.18A27.954,27.954,0,0,1,15.173,1.652C18.91-.222,23.085-.756,26.4,1.4s4.52,6.184,4.324,10.361a27.96,27.96,0,0,1-4.726,13.51Z" transform="translate(163.755 111.133)" fill="#c4d0fb"/>
    <path id="Path-23" data-name="Path" d="M18.26,13.69,9.131,0,0,13.69Z" transform="translate(180.821 253.192)" fill="#c4d0fb"/>
    <path id="Path-24" data-name="Path" d="M11.342,14.637,14.866,0,0,2.372Z" transform="translate(292.785 159.914)" fill="#c4d0fb"/>
    <path id="Path-25" data-name="Path" d="M47.9,35.908,23.95,0,0,35.908Z" transform="translate(233.993 230.974)" fill="#c4d0fb"/>
    <path id="Path-26" data-name="Path" d="M19.547,0H0V46.751H19.547Z" transform="translate(216.371 220.131)" fill="#9087e5"/>
    <path id="Path-27" data-name="Path" d="M9.2,0,0,8.5,20.338,30.5l9.2-8.5Z" transform="translate(308.798 171.089)" fill="#c4d0fb"/>
    <path id="Path-28" data-name="Path" d="M0,26.819a26.819,26.819,0,1,1,53.638,0" transform="translate(210.724 240.064)" fill="#ffd6dd"/>
    <path id="Path-29" data-name="Path" d="M17,21.718A12.523,12.523,0,0,0,0,3.328Z" transform="translate(271.009 135.408)" fill="#c4d0fb"/>
    <path id="Path-30" data-name="Path" d="M.065,0a3.163,3.163,0,0,0,1.9,3.584Z" transform="translate(163.672 95.065)" fill="#0c092a" stroke="#0c092a" stroke-miterlimit="10" stroke-width="1"/>
    <path id="Path-31" data-name="Path" d="M10.355,26.178.592,22.366.774,21.9h0l-.182.466-.314-.123,0-.337L.006.512l1-.012L1.27,21.557l9.449,3.69.466.182-.365.931ZM0,.013,1,0l.006.5-1,.012Z" transform="translate(133.611 112.823)" fill="#6a5ae0"/>
    <path id="Path-32" data-name="Path" d="M1.027,15.556.033.565l1-.067L2.024,15.49l.033.5-1,.066ZM0,.066,1,0l.032.5-1,.067Z" transform="translate(108.995 118.855)" fill="#6a5ae0"/>
    <path id="Path-33" data-name="Path" d="M2.468,7.689.212,1.606l.469-.174L.6.938l.077.494-.469.174L0,1.031.6.938,6.147.076l.154.988-4.938.767L3.406,7.341l.174.469-.938.347ZM6.147.076,6.641,0l.153.988L6.3,1.065Z" transform="translate(72.83 188.149)" fill="#6a5ae0"/>
    <path id="Path-34" data-name="Path" d="M5.715,9.254.548,4.624l.333-.372L.658,3.805l.223.447-.333.372L0,4.134l.658-.328L7.817.224l.447.894L1.762,4.37l4.62,4.138.373.334-.668.745Zm2.1-9.03L8.265,0l.447.895-.447.223Z" transform="translate(125.616 192.025)" fill="#6a5ae0"/>
    <path id="Path-35" data-name="Path" d="M0,19.126l.046-.5L1.7.5,2.7.59l-1.66,18.13-.046.5ZM1.7.5,1.751,0l1,.091L2.7.59Z" transform="translate(108.7 162.972)" fill="#6a5ae0"/>
    <path id="Path-36" data-name="Path" d="M5.524,1.361A16.423,16.423,0,0,1,13.8.06l5.4,2.031s4.793,3.844-1.779,10.642S0,15.42,0,15.42" transform="translate(150.465 147.256)" fill="#ffccd7"/>
  </g>
</svg>
