<svg xmlns="http://www.w3.org/2000/svg" width="55" height="55" viewBox="0 0 44 44">
  <path id="Ellipse" d="M44,22A22,22,0,1,1,22,0,22,22,0,0,1,44,22Z" fill="#fff"/>
  <g id="Icon" transform="translate(10 10)">
    <path id="Vector" d="M11,20a2,2,0,0,1-2-2V17a1,1,0,0,0-1.707-.707L5.879,14.879A3,3,0,0,1,11,17v1h3l1.414,1.414A2,2,0,0,1,14,20ZM2,20a2,2,0,0,1-2-2V15a2,2,0,0,1,2-2v5H5l1.414,1.414A2,2,0,0,1,5,20Zm12-2h2a2,2,0,0,1-.586,1.414ZM5,18H7a2,2,0,0,1-.586,1.414Zm9,0V15h2v3ZM5,18V17H7v1Zm0-1a3,3,0,0,1,.878-2.121l1.414,1.414A1,1,0,0,0,7,17Zm11-2-1.415-1.415A2,2,0,0,1,16,13h1a1,1,0,0,0,.707-.293l1.414,1.414A3,3,0,0,1,17,15Zm-2,0a2,2,0,0,1,.585-1.415L16,15ZM3,13a1,1,0,0,0,0-2H2A2,2,0,0,1,0,9V6A2,2,0,0,1,2,4H5V6H2V9H3a3,3,0,0,1,0,6ZM2,15V13H3v2Zm15.708-2.293A1,1,0,0,0,18,12h2a3,3,0,0,1-.878,2.121ZM18,12a1,1,0,0,0-.292-.707l1.414-1.415A3,3,0,0,1,20,12Zm-1-1V9a3,3,0,0,1,2.121.878l-1.414,1.415A1,1,0,0,0,17,11Zm-1,0V9h1v2Zm-1.415-.586L16,9v2A2,2,0,0,1,14.585,10.414ZM14,9h2l-1.415,1.414A2,2,0,0,1,14,9Zm0,0V6h2V9Zm0-3,1.414-1.415A2,2,0,0,1,16,6Zm0-2a2,2,0,0,1,1.414.586L14,6ZM11,6V4h3V6ZM9.586,5.414,11,4V6A2,2,0,0,1,9.586,5.414ZM5,4V3A3,3,0,0,1,8,0V2A1,1,0,0,0,7,3V4A2,2,0,0,1,5,6ZM9,4h2L9.586,5.414A2,2,0,0,1,9,4ZM9,4V3h2V4ZM9,3a1,1,0,0,0-.292-.707L10.121.878A3,3,0,0,1,11,3ZM8,2V0a3,3,0,0,1,2.121.878L8.708,2.293A1,1,0,0,0,8,2Z" transform="translate(2 2)" fill="#0c092a"/>
  </g>
</svg>
