<svg xmlns="http://www.w3.org/2000/svg" width="55" height="55" viewBox="0 0 44 44">
  <path id="Ellipse" d="M44,22A22,22,0,1,1,22,0,22,22,0,0,1,44,22Z" fill="#fff"/>
  <g id="Icon" transform="translate(10 10)">
    <path id="Vector" d="M3,16a3,3,0,0,1-3-3V3A3,3,0,0,1,3,0H17V2H3A1,1,0,0,0,2,3V13a1,1,0,0,0,1,1H17a1,1,0,0,0,1-1h2a3,3,0,0,1-3,3Zm15-3V3h2V13ZM18,3a1,1,0,0,0-1-1V0a3,3,0,0,1,3,3Z" transform="translate(2 4)" fill="#0c092a"/>
    <path id="Vector-2" data-name="Vector" d="M9.446,7.832l-9-6L1.555.168,10,5.8,18.446.168l1.11,1.664-9,6a1,1,0,0,1-1.11,0Zm1.11,0L10,7h0ZM18.446.168a1,1,0,1,1,1.11,1.664ZM.168.446A1,1,0,0,1,1.555.168L.446,1.832A1,1,0,0,1,.168.446Z" transform="translate(2 6)" fill="#0c092a"/>
  </g>
</svg>
