<svg xmlns="http://www.w3.org/2000/svg" width="55" height="55" viewBox="0 0 44 44">
  <path id="Ellipse" d="M44,22A22,22,0,1,1,22,0,22,22,0,0,1,44,22Z" fill="#fff"/>
  <g id="Icon" transform="translate(10 10)">
    <path id="Vector" d="M4,11.042a6.047,6.047,0,0,1,.6-2.935L6.394,9A4.04,4.04,0,0,0,6,10.958,1,1,0,0,1,5.043,12H5A1,1,0,0,1,4,11.042Zm.6-2.935A4.3,4.3,0,0,1,6.575,6.095L7,7V7l-.423-.9a.91.91,0,0,1,.093-.038,2,2,0,0,0,1-.778l1.664,1.11A4,4,0,0,1,7.389,7.922,2.341,2.341,0,0,0,6.394,9ZM7.669,5.279A2,2,0,0,0,8,4.056L9.008,4H9L8,4.056C8,4.037,8,4.019,8,4a1.8,1.8,0,0,0-.676-1.362l1.3-1.518A3.8,3.8,0,0,1,10,3.975a4,4,0,0,1-.667,2.414ZM0,4A3.8,3.8,0,0,1,1.374,1.12,4.816,4.816,0,0,1,4.5,0V2a2.821,2.821,0,0,0-1.824.638A1.8,1.8,0,0,0,2,4,1,1,0,1,1,0,4ZM5.5,2V0A4.815,4.815,0,0,1,8.626,1.12l-1.3,1.518A2.821,2.821,0,0,0,5.5,2Zm-1,0V0h1V2Z" transform="translate(7 4)" fill="#0c092a"/>
    <path id="Vector-2" data-name="Vector" d="M0,1.01V1H2v.01a1,1,0,0,1-2,0ZM0,1A1,1,0,0,1,2,1Z" transform="translate(11 18)" fill="#0c092a"/>
  </g>
</svg>
