<svg xmlns="http://www.w3.org/2000/svg" xmlns:xlink="http://www.w3.org/1999/xlink" width="269.43" height="294.869" viewBox="0 0 269.43 294.869">
  <defs>
    <clipPath id="clip-path">
      <rect id="Rectangle_1" data-name="Rectangle 1" width="269.43" height="294.869" fill="none"/>
    </clipPath>
  </defs>
  <g id="Group_29" data-name="Group 29" transform="translate(0 -0.001)">
    <g id="Group_24" data-name="Group 24" transform="translate(0 0.001)">
      <g id="Group_23" data-name="Group 23" transform="translate(0 0)" clip-path="url(#clip-path)">
        <path id="Path_1" data-name="Path 1" d="M479.848,62.483a75.013,75.013,0,0,1-14.458,18.359,44.322,44.322,0,0,0,1.05-5.489.416.416,0,0,1,.236-.323l.3-.144c-.165,0-.329,0-.495,0q-1.767,0-3.368,0c-11.17-.017-16.777-.025-18.827,2.022-1.342,1.341-1.569,3.844-1.569,8.947a31.434,31.434,0,0,1-.824,8.2,9.7,9.7,0,0,1-.722,1.833q-3.26,1.24-6.662,2.177c-2.063-1.115-4.111-3.771-6.591-8.412-4.259-7.971-8.528-11.858-15.223-13.87-6.894-2.072-16.642-2.22-31.863-2.216a109.349,109.349,0,0,1-13.441.767,30.92,30.92,0,0,1-11.221-1.824,74.564,74.564,0,0,1-9.441-15.361,14.535,14.535,0,0,1,2.1-5.364v-.009l.2-.3a14.561,14.561,0,0,1,2.017-2.383,8.66,8.66,0,0,1-.8-1.8c-1.467-4.626.428-11.605,6.831-15.429a16.591,16.591,0,0,1,2.233-1.111,7.641,7.641,0,0,1-.186-1.9c.109-4.882,4.311-11,11.24-16.367a60.1,60.1,0,0,1,22.6-10.652,65.5,65.5,0,0,1,30.7-.024c1.761.414,3.536.9,5.276,1.456.252-.009.521-.015.815-.019A34.039,34.039,0,0,1,447.39,7.537a24.915,24.915,0,0,1,10.624,12.1A25.63,25.63,0,0,1,472.592,31.12a23.926,23.926,0,0,1,2.758,16.722,33.21,33.21,0,0,1,3.658,8.667,24.275,24.275,0,0,1,.84,5.974" transform="translate(-264.415 -0.001)" fill="#32d2a0"/>
        <path id="Path_2" data-name="Path 2" d="M44.724,844.4a1.991,1.991,0,1,1,0,3.981h-17.2c-3.42,0-4.389.357-5.512,1.684a4.784,4.784,0,0,0,.663,6.329c2.348,1.939,6.584,2.552,12.249,3.113a2,2,0,1,1-.459,3.981c-5.512-.561-11.33-1.48-14.392-4.032a9.026,9.026,0,0,1-1.021-12.045,8.275,8.275,0,0,1,5.818-2.858A12.167,12.167,0,0,1,33.7,824.04a12.634,12.634,0,0,1,8.625,3.573c1.939,1.939-1.174,4.848-2.858,2.756a8.1,8.1,0,0,0-5.767-2.348,8.191,8.191,0,0,0,0,16.383Zm10.208-32.97a1.991,1.991,0,1,1,3.981,0v34.909a1.991,1.991,0,1,1-3.981,0Zm41.9,36.951a10.463,10.463,0,0,1-8.676-4.7,12.347,12.347,0,0,1-9.595,4.7H69.121a1.991,1.991,0,1,1,0-3.981h9.442a8.191,8.191,0,0,0,0-16.383,7.68,7.68,0,0,0-5.053,1.838c-2.195,1.531-4.7-1.378-2.552-3.113a12.428,12.428,0,0,1,7.6-2.7,12.255,12.255,0,0,1,11.994,14.188,6.187,6.187,0,0,0,6.278,6.175h.153v3.981Zm6.278-18.067a1.991,1.991,0,1,1,3.981,0v7.809a10.325,10.325,0,0,1-10.258,10.258h-.153V844.4h.153a6.209,6.209,0,0,0,6.278-6.277Zm-.766,25.365a2.4,2.4,0,1,1,2.4,2.45A2.464,2.464,0,0,1,102.346,855.683ZM141.9,838.127c0,14.188-17.965,18.22-26.233,8.727-1.684-2.041,1.531-4.542,3.113-2.552,6.227,7.094,19.139,4.185,19.139-6.175V811.434a1.991,1.991,0,1,1,3.981,0Zm-16.893,24.243a1.455,1.455,0,0,1,0,2.909H116.79a1.455,1.455,0,0,1,0-2.909h.2a5.088,5.088,0,0,1-.561-2.3,5.2,5.2,0,0,1,8.166-4.185c1.837,1.276.1,3.573-1.735,2.092a2.348,2.348,0,0,0-3.573,2.093,2.43,2.43,0,0,0,2.3,2.3ZM117.5,822.2c-1.276-2.5,2.45-4.389,3.47-1.786l8.983,18.577c1.225,2.4-2.348,4.185-3.471,1.787Zm32.562-10.769a1.991,1.991,0,1,1,3.981,0v34.909a1.991,1.991,0,1,1-3.981,0Zm51.956,36.951a10.325,10.325,0,0,1-10.259-10.258c0-6.482-3.317-10.105-8.217-10.105a8.223,8.223,0,0,0-8.166,8.166c0,6.431,6.227,9.085,10.361,7.962a1.966,1.966,0,1,1,1.072,3.777c-6.124,1.633-15.413-2.246-15.413-11.739a12.31,12.31,0,0,1,12.147-12.147c7.145,0,12.2,5.563,12.2,14.086a6.241,6.241,0,0,0,6.278,6.277h.153v3.981Zm-23.834-31.9a2.4,2.4,0,1,1,2.4,2.45A2.464,2.464,0,0,1,178.188,816.487Zm6.533,0a2.464,2.464,0,0,1,2.4-2.4,2.424,2.424,0,0,1,0,4.848A2.474,2.474,0,0,1,184.721,816.487Zm33.889,31.9a10.615,10.615,0,0,1-8.319-4.134,10.368,10.368,0,0,1-8.268,4.134h-.153V844.4h.153a6.209,6.209,0,0,0,6.277-6.277v-7.809a1.991,1.991,0,1,1,3.981,0v7.809a6.22,6.22,0,0,0,6.328,6.277h.153v3.981Zm-10.718,7.3a2.4,2.4,0,1,1,2.4,2.45A2.464,2.464,0,0,1,207.892,855.683Zm54.15-17.557a6.241,6.241,0,0,0,6.278,6.277h.153v3.981h-.153a10.757,10.757,0,0,1-8.166-3.93c-3.93,5.053-12.657,5.1-16.689.1-3.981,5-12.861,4.951-16.638-.2a10.632,10.632,0,0,1-8.217,4.032h-.153V844.4h.153a6.209,6.209,0,0,0,6.278-6.277v-4.9a1.991,1.991,0,1,1,3.981,0v5c0,8.268,12.606,8.268,12.606,0v-5a1.991,1.991,0,1,1,3.981,0v5c0,8.268,12.606,8.268,12.606,0V827.562a1.991,1.991,0,1,1,3.981,0Zm12.556-7.809a1.991,1.991,0,1,1,3.981,0v7.809a10.325,10.325,0,0,1-10.258,10.258h-.153V844.4h.153a6.209,6.209,0,0,0,6.277-6.277Zm-.459-9.493a2.4,2.4,0,1,1,2.4,2.45A2.464,2.464,0,0,1,274.14,820.825Z" transform="translate(-13.132 -617.251)" fill="#49465F"/>
        <text id="C" transform="translate(1.787 279.674)" fill="#49465F" font-size="28" font-family="SegoeUI, Segoe UI"><tspan x="0" y="0">C</tspan></text>
      </g>
    </g>
    <text id="reativity" transform="translate(23.135 280.1)" fill="#49465F" font-size="28" font-family="SegoeUI, Segoe UI"><tspan x="0" y="0" letter-spacing="-0.024em">r</tspan><tspan y="0">e</tspan><tspan y="0" letter-spacing="-0.004em">a</tspan><tspan y="0">t</tspan><tspan y="0" letter-spacing="-0.059em">i</tspan><tspan y="0">v</tspan><tspan y="0" letter-spacing="-0.03em">i</tspan><tspan y="0">ty</tspan></text>
    <g id="Group_26" data-name="Group 26" transform="translate(0 0.001)">
      <g id="Group_25" data-name="Group 25" transform="translate(0 0)" clip-path="url(#clip-path)">
        <text id="_Q" data-name=" Q" transform="translate(136.123 279.674)" fill="#49465F" font-size="28" font-family="SegoeUI, Segoe UI"><tspan x="0" y="0" xml:space="preserve"> Q</tspan></text>
      </g>
    </g>
    <text id="uotient" transform="translate(165.917 280.1)" fill="#49465F" font-size="28" font-family="SegoeUI, Segoe UI"><tspan x="0" y="0">uot</tspan><tspan y="0" letter-spacing="-0.025em">i</tspan><tspan y="0">ent</tspan></text>
    <g id="Group_28" data-name="Group 28" transform="translate(0 0.001)">
      <g id="Group_27" data-name="Group 27" transform="translate(0 0)" clip-path="url(#clip-path)">
        <path id="Path_3" data-name="Path 3" d="M478.341,56.509a33.24,33.24,0,0,0-3.658-8.667,23.925,23.925,0,0,0-2.758-16.722,25.628,25.628,0,0,0-14.578-11.483,24.915,24.915,0,0,0-10.624-12.1A34.041,34.041,0,0,0,429.1,3.25c-.294,0-.563.01-.815.019-1.741-.553-3.515-1.042-5.277-1.456a65.494,65.494,0,0,0-30.7.023,60.106,60.106,0,0,0-22.6,10.652c-6.929,5.365-11.131,11.485-11.24,16.367a7.644,7.644,0,0,0,.186,1.9,16.6,16.6,0,0,0-2.233,1.111c-6.4,3.824-8.3,10.8-6.831,15.429a8.64,8.64,0,0,0,.8,1.8,14.532,14.532,0,0,0-2.017,2.383l-.2.3v.009a14.539,14.539,0,0,0-2.1,5.364,13.553,13.553,0,0,0,.077,5.127,12.752,12.752,0,0,0,.67,2.167A13.067,13.067,0,0,0,347.87,66.5c.3,20.521,12.732,35.386,24.763,49.767,4.45,5.319,8.651,10.342,12.28,15.645a3.428,3.428,0,0,0,5.659-3.871c-3.816-5.578-8.322-10.963-12.68-16.173C367.458,99.39,357.528,87.524,355.222,72.4l.281.114a30.927,30.927,0,0,0,11.221,1.824,109.35,109.35,0,0,0,13.441-.767c15.221,0,24.969.144,31.863,2.215,6.694,2.012,10.963,5.9,15.223,13.87,2.48,4.64,4.528,7.3,6.591,8.412a4.943,4.943,0,0,0,2.4.63,4.678,4.678,0,0,0,4.258-2.808,9.714,9.714,0,0,0,.722-1.833,31.426,31.426,0,0,0,.824-8.2c0-5.1.227-7.607,1.569-8.947,2.049-2.047,7.656-2.039,18.827-2.022l3.368,0c.166,0,.33,0,.495,0l-.3.144a.417.417,0,0,0-.236.323,44.279,44.279,0,0,1-1.05,5.489c-3.37,13.1-12.368,23.85-21.776,35.1-3.343,4-12.77,14.351-18.7,21.473a7.981,7.981,0,0,1-6.164,2.872l-26.668-.1a10.489,10.489,0,1,0,.13,20.978l28.176-.173a3.633,3.633,0,0,1,.045,7.266l-32.077.264a3.427,3.427,0,1,0,.042,6.854l32.077-.262a10.489,10.489,0,0,0-.13-20.978l-28.175.174a3.634,3.634,0,0,1-.047-7.268l29.073.1,4.14.015a1.278,1.278,0,0,0,1.066-.542l0-.006c1-1.456,2.8-3.692,4.991-6.278,5.789-6.837,14.249-16.134,17.477-19.993,11.448-13.686,23.26-27.808,24.636-46.824a10.782,10.782,0,0,0,3.166-2.221,10.413,10.413,0,0,0,2.06-3.032,13.945,13.945,0,0,0,1.113-5.78,24.272,24.272,0,0,0-.84-5.974M465.814,68.458c-1.528,0-3.009-.01-4.44-.02-10.763-.074-18.537-.128-22.653,4.25-3.1,3.3-3.1,8.421-3.108,12.936a39.281,39.281,0,0,1-.21,5.1,37.423,37.423,0,0,1-2.48-4.106c-4.02-7.524-8.32-12.14-13.942-14.968-4.3-2.164-9.442-3.392-17.054-4,4.253-1.878,8.2-4.041,12.234-6.313a5.24,5.24,0,1,0-4.262-5.149c0,.054,0,.109,0,.163a95.908,95.908,0,0,1-16.421,7.677c-7.82,2.639-16.322,3.868-26.758,3.868-4.9,0-8.821-.93-11.335-2.691a6.877,6.877,0,0,1-2.956-4.265,8.009,8.009,0,0,1,3.624-8.151c.055.013.112.025.167.037a51.112,51.112,0,0,0,27.969-1.846A88.9,88.9,0,0,0,394.726,46.6a5.24,5.24,0,1,0-3.106-5.607c-10.55,5.108-21.317,8.277-33.741,5.617-.451-.095-.926-.2-1.412-.325-.63-.191-1-1.24-.911-2.561.327-4.61,4.633-7.265,8.5-7.782h0c.193-.026.371-.047.546-.064a50.713,50.713,0,0,0,11.509-2.508,5.24,5.24,0,1,0-2.76-5.846A46.267,46.267,0,0,1,367,29.075c-.678.115-1.365.214-2.049.3-.31-.426-.1-1.272.071-1.786,1.693-5.047,9.394-11.249,16.13-14.766a56.689,56.689,0,0,1,26.293-6.407q2.485,0,5.119.221-1.275.528-2.611,1.162-1.954.928-3.888,2a5.241,5.241,0,1,0,2.3,6.02,43.581,43.581,0,0,1,12.528-5.13A41.825,41.825,0,0,1,428.25,9.7c9.284-.357,16.795,2.718,21,8.495a39.277,39.277,0,0,0-4.658.041l-.041,0a52.048,52.048,0,0,0-11.2,2.1q-2.321.69-4.578,1.528a5.239,5.239,0,1,0,1.674,6.244q2.349-.893,4.735-1.607a40.259,40.259,0,0,1,14.48-1.828A21.585,21.585,0,0,1,463.3,30.4a17.853,17.853,0,0,1,4.879,8.451,17.617,17.617,0,0,1,.527,3.659,23.651,23.651,0,0,0-5.326-2.236,29.764,29.764,0,0,0-9.314-1.031,5.24,5.24,0,1,0,.977,6.492h.036a22,22,0,0,1,9.658,1.962,13.944,13.944,0,0,1,4.106,2.982c1.67,1.927,5.326,10.582,3.363,14.946h0c-.654,1.454-1.929,2.3-4.016,2.652a14.036,14.036,0,0,1-2.371.182" transform="translate(-263.748 -0.001)" fill="#49465F"/>
      </g>
    </g>
  </g>
</svg>
