<svg id="App_Logo_Property_1_Light_Property_2_Big_Property_3_Text_" data-name="App Logo (Property 1=Light, Property 2=Big, Property 3=Text)" xmlns="http://www.w3.org/2000/svg" width="121.167" height="131.943" viewBox="0 0 121.167 131.943">
  <g id="Logo" transform="translate(10.584 -10.028)">
    <g id="Group_124" data-name="Group 124" transform="translate(-10.584 10.028)">
      <g id="logo-2" data-name="logo" transform="translate(0 0)">
        <path id="Path_7" data-name="Path 7" d="M194.86,42.075a2.44,2.44,0,0,1-.96-.2,41.089,41.089,0,0,1-4.869,2.029,23.626,23.626,0,0,1-12.933.854l-.078-.017a3.706,3.706,0,0,0-1.676,3.768,3.172,3.172,0,0,0,1.368,1.972,9.3,9.3,0,0,0,5.24,1.244,37.893,37.893,0,0,0,12.373-1.788,44.265,44.265,0,0,0,7.593-3.55v-.075a2.423,2.423,0,1,1,2.423,2.423,2.311,2.311,0,0,1-.451-.043c-1.868,1.052-3.69,2.052-5.656,2.92a20.71,20.71,0,0,1,7.887,1.848c2.6,1.308,4.587,3.443,6.447,6.921a17.571,17.571,0,0,0,1.147,1.9,18.835,18.835,0,0,0,.1-2.36c0-2.087,0-4.455,1.437-5.981,1.9-2.023,5.5-2,10.473-1.966q.992.009,2.052.009a6.606,6.606,0,0,0,1.1-.083,2.222,2.222,0,0,0,1.857-1.227h0c.908-2.018-.782-6.018-1.555-6.909a6.451,6.451,0,0,0-1.9-1.38,10.156,10.156,0,0,0-4.466-.908h-.017a2.425,2.425,0,1,1-.454-3,13.749,13.749,0,0,1,4.305.477,10.974,10.974,0,0,1,2.463,1.035,8.13,8.13,0,0,0-.244-1.693,8.272,8.272,0,0,0-2.256-3.909,9.961,9.961,0,0,0-6.306-2.641,18.615,18.615,0,0,0-6.7.845c-.736.218-1.466.468-2.19.744a2.425,2.425,0,1,1-.776-2.888c.7-.256,1.4-.494,2.115-.707a24.127,24.127,0,0,1,5.179-.974h.02a18.62,18.62,0,0,1,2.153-.02c-1.943-2.67-5.415-4.093-9.709-3.929a19.154,19.154,0,0,0-3.4.451,20.176,20.176,0,0,0-5.794,2.371,2.422,2.422,0,1,1-1.061-2.782c.6-.328,1.2-.638,1.8-.923.414-.2.813-.374,1.207-.537q-1.216-.1-2.368-.1a26.213,26.213,0,0,0-12.157,2.963c-3.116,1.627-6.677,4.5-7.458,6.826-.08.239-.175.629-.032.825.316-.037.635-.083.948-.138A21.128,21.128,0,0,0,184,33.048a2.42,2.42,0,1,1,1.276,2.7,23.455,23.455,0,0,1-5.323,1.158c-.081.009-.164.017-.253.029h0c-1.785.239-3.777,1.466-3.929,3.6-.043.609.129,1.1.423,1.184.224.055.445.106.652.149,5.745,1.23,10.723-.236,15.6-2.6a2.423,2.423,0,1,1,2.408,2.8Z" transform="translate(-135.171 -20.334)" fill="#52be99"/>
        <g id="Group_35" data-name="Group 35" transform="translate(0.155 88.848)">
          <path id="Path_8" data-name="Path 8" d="M51.465,355.088a.92.92,0,1,1,0,1.839H43.513c-1.581,0-2.029.167-2.549.779a2.21,2.21,0,0,0,.308,2.926c1.086.9,3.044,1.178,5.665,1.44a.926.926,0,1,1-.213,1.839c-2.549-.259-5.24-.684-6.654-1.865a4.173,4.173,0,0,1-.471-5.57,3.817,3.817,0,0,1,2.69-1.322,5.624,5.624,0,0,1,4.081-9.485,5.846,5.846,0,0,1,3.989,1.653c.9.9-.543,2.242-1.322,1.273a3.743,3.743,0,0,0-2.667-1.086,3.788,3.788,0,0,0,0,7.576h5.1Z" transform="translate(-38.75 -338.906)" fill="#fff"/>
          <path id="Path_9" data-name="Path 9" d="M99.41,323.075a.92.92,0,1,1,1.839,0v16.141a.92.92,0,1,1-1.839,0Z" transform="translate(-81.976 -322.137)" fill="#fff"/>
          <path id="Path_10" data-name="Path 10" d="M132.721,356.935a4.843,4.843,0,0,1-4.012-2.17,5.706,5.706,0,0,1-4.438,2.17h-4.366a.92.92,0,1,1,0-1.839h4.366a3.788,3.788,0,0,0,0-7.576,3.553,3.553,0,0,0-2.337.851.931.931,0,1,1-1.181-1.44,5.74,5.74,0,0,1,3.515-1.25,5.677,5.677,0,0,1,5.616,5.616,5.5,5.5,0,0,1-.072.943,2.861,2.861,0,0,0,2.9,2.854h.072v1.839h-.066Z" transform="translate(-95.912 -338.914)" fill="#fff"/>
          <path id="Path_11" data-name="Path 11" d="M169.545,353.455a.92.92,0,1,1,1.839,0v3.61a4.773,4.773,0,0,1-4.742,4.742h-.072v-1.839h.072a2.871,2.871,0,0,0,2.9-2.9Zm-.354,11.726a1.11,1.11,0,1,1,1.109,1.132A1.141,1.141,0,0,1,169.191,365.182Z" transform="translate(-129.833 -343.786)" fill="#fff"/>
          <path id="Path_12" data-name="Path 12" d="M208.714,335.417c0,6.562-8.306,8.424-12.129,4.035a.932.932,0,0,1,1.44-1.181c2.88,3.279,8.849,1.934,8.849-2.854V323.075a.92.92,0,1,1,1.839,0ZM200.9,346.626a.673.673,0,1,1,0,1.345h-3.8a.673.673,0,1,1,0-1.345h.095a2.371,2.371,0,0,1-.259-1.063,2.4,2.4,0,0,1,3.777-1.934c.851.589.046,1.653-.8.969a1.086,1.086,0,0,0-1.653.969,1.125,1.125,0,0,0,1.061,1.064H200.9Zm-3.469-18.573c-.589-1.155,1.132-2.029,1.6-.825l4.153,8.591a.9.9,0,1,1-1.6.825Z" transform="translate(-151.065 -322.137)" fill="#fff"/>
          <path id="Path_13" data-name="Path 13" d="M252.46,323.075a.92.92,0,1,1,1.839,0v16.141a.92.92,0,1,1-1.839,0Z" transform="translate(-191.037 -322.137)" fill="#fff"/>
          <path id="Path_14" data-name="Path 14" d="M300.941,345.526a4.773,4.773,0,0,1-4.742-4.742c0-3-1.535-4.673-3.8-4.673a3.8,3.8,0,1,0,1.015,7.458.909.909,0,1,1,.494,1.747c-2.831.756-7.128-1.038-7.128-5.426a5.692,5.692,0,0,1,5.616-5.616c3.305,0,5.639,2.572,5.639,6.513a2.886,2.886,0,0,0,2.9,2.9h.072v1.839h-.069Zm-11.019-14.747a1.11,1.11,0,1,1,1.109,1.132A1.141,1.141,0,0,1,289.921,330.779Zm3.018,0a1.141,1.141,0,0,1,1.109-1.109,1.121,1.121,0,0,1,0,2.242A1.145,1.145,0,0,1,292.939,330.779Z" transform="translate(-215.493 -327.505)" fill="#fff"/>
          <path id="Path_15" data-name="Path 15" d="M343.54,361.807a4.908,4.908,0,0,1-3.846-1.911,4.8,4.8,0,0,1-3.823,1.911H335.8v-1.839h.072a2.871,2.871,0,0,0,2.9-2.9v-3.61a.92.92,0,1,1,1.839,0v3.61a2.877,2.877,0,0,0,2.926,2.9h.072v1.839Zm-4.955,3.374a1.11,1.11,0,1,1,1.109,1.132A1.141,1.141,0,0,1,338.585,365.182Z" transform="translate(-250.425 -343.786)" fill="#fff"/>
          <path id="Path_16" data-name="Path 16" d="M382.636,353.908a2.886,2.886,0,0,0,2.9,2.9h.072v1.839h-.072a4.973,4.973,0,0,1-3.777-1.816,5.141,5.141,0,0,1-7.717.046,5.082,5.082,0,0,1-7.694-.095,4.915,4.915,0,0,1-3.8,1.865h-.072v-1.839h.072a2.87,2.87,0,0,0,2.9-2.9v-2.265a.92.92,0,1,1,1.839,0v2.314c0,3.823,5.829,3.823,5.829,0v-2.314a.92.92,0,1,1,1.839,0v2.314c0,3.823,5.829,3.823,5.829,0v-4.932a.92.92,0,1,1,1.839,0v4.883Z" transform="translate(-269.437 -340.629)" fill="#fff"/>
          <path id="Path_17" data-name="Path 17" d="M445.435,342.148a.92.92,0,1,1,1.839,0v3.61a4.773,4.773,0,0,1-4.742,4.742h-.072v-1.839h.072a2.871,2.871,0,0,0,2.9-2.9Zm-.213-4.389a1.11,1.11,0,1,1,1.109,1.132A1.141,1.141,0,0,1,445.222,337.759Z" transform="translate(-326.429 -332.479)" fill="#fff"/>
        </g>
        <g id="Group_36" data-name="Group 36" transform="translate(0 120.197)">
          <path id="Path_18" data-name="Path 18" d="M38.21,436.219v-.026a4.719,4.719,0,0,1,4.737-4.843,4.839,4.839,0,0,1,3.343,1.216.584.584,0,0,1,.213.428.543.543,0,0,1-.535.523.625.625,0,0,1-.348-.121,3.834,3.834,0,0,0-2.687-1.069,3.671,3.671,0,0,0-3.624,3.84v.026a3.693,3.693,0,0,0,3.624,3.866,3.834,3.834,0,0,0,2.782-1.138.485.485,0,0,1,.333-.147.527.527,0,0,1,.509.509.5.5,0,0,1-.172.374,4.8,4.8,0,0,1-3.478,1.377A4.67,4.67,0,0,1,38.21,436.219Z" transform="translate(-38.21 -431.31)" fill="#fff"/>
          <path id="Path_19" data-name="Path 19" d="M73.71,440.768a.328.328,0,1,1,.655,0v1.658a3.247,3.247,0,0,1,2.742-2.046.349.349,0,0,1,.348.362.359.359,0,0,1-.348.362c-1.446.132-2.742,1.216-2.742,3.411v2.515a.328.328,0,1,1-.655,0Z" transform="translate(-63.507 -437.744)" fill="#fff"/>
          <path id="Path_20" data-name="Path 20" d="M92.883,447.332a3.388,3.388,0,0,1-3.343-3.558v-.026a3.362,3.362,0,0,1,3.236-3.558,3.232,3.232,0,0,1,3.13,3.532.333.333,0,0,1-.322.307H90.236a2.7,2.7,0,0,0,2.676,2.687,3.021,3.021,0,0,0,2.207-.937.29.29,0,0,1,.213-.095.315.315,0,0,1,.322.307.321.321,0,0,1-.106.227A3.465,3.465,0,0,1,92.883,447.332Zm2.314-3.891a2.529,2.529,0,0,0-2.449-2.647,2.659,2.659,0,0,0-2.515,2.647Z" transform="translate(-74.787 -437.609)" fill="#fff"/>
          <path id="Path_21" data-name="Path 21" d="M116.39,445.329V445.3c0-1.417,1.216-2.222,2.983-2.222a8.263,8.263,0,0,1,2.259.293v-.293A1.963,1.963,0,0,0,119.385,441a4.417,4.417,0,0,0-1.94.454.364.364,0,0,1-.147.04.32.32,0,0,1-.308-.308.33.33,0,0,1,.187-.293,5.285,5.285,0,0,1,2.248-.509,2.936,2.936,0,0,1,2.153.75,2.591,2.591,0,0,1,.7,1.926v3.972a.322.322,0,1,1-.644,0v-.857a3.1,3.1,0,0,1-2.61,1.3A2.372,2.372,0,0,1,116.39,445.329Zm5.257-.575v-.776a9.06,9.06,0,0,0-2.314-.307c-1.446,0-2.248.641-2.248,1.592v.026c0,.989.937,1.566,1.98,1.566A2.346,2.346,0,0,0,121.647,444.754Z" transform="translate(-93.92 -437.744)" fill="#fff"/>
          <path id="Path_22" data-name="Path 22" d="M143.493,440.29v-4.466h-.736a.32.32,0,0,1-.308-.308.307.307,0,0,1,.308-.293h.736v-1.9a.321.321,0,0,1,.322-.333.33.33,0,0,1,.333.333v1.9h2.141a.32.32,0,0,1,.308.308.307.307,0,0,1-.308.293h-2.141v4.4a1.2,1.2,0,0,0,1.365,1.325,2.847,2.847,0,0,0,.776-.135.306.306,0,0,1,.293.293.3.3,0,0,1-.213.282,2.783,2.783,0,0,1-.963.175A1.748,1.748,0,0,1,143.493,440.29Z" transform="translate(-112.49 -432.478)" fill="#fff"/>
          <path id="Path_23" data-name="Path 23" d="M163.02,431.745a.535.535,0,1,1,.535.549A.537.537,0,0,1,163.02,431.745Zm.213,2.489a.328.328,0,1,1,.655,0v6.26a.312.312,0,0,1-.322.333.323.323,0,0,1-.333-.333Z" transform="translate(-127.148 -431.21)" fill="#fff"/>
          <path id="Path_24" data-name="Path 24" d="M173.95,447.248a.4.4,0,0,1-.374.282h-.026a.4.4,0,0,1-.374-.282l-2.742-6.153a.586.586,0,0,1-.055-.2.334.334,0,0,1,.348-.333.36.36,0,0,1,.348.267l2.489,5.872,2.529-5.9a.336.336,0,0,1,.322-.241.33.33,0,0,1,.333.333.443.443,0,0,1-.04.175Z" transform="translate(-132.393 -437.873)" fill="#fff"/>
          <path id="Path_25" data-name="Path 25" d="M198.9,431.745a.535.535,0,1,1,.535.549A.537.537,0,0,1,198.9,431.745Zm.213,2.489a.328.328,0,1,1,.655,0v6.26a.312.312,0,0,1-.322.333.323.323,0,0,1-.333-.333Z" transform="translate(-152.716 -431.21)" fill="#fff"/>
          <path id="Path_26" data-name="Path 26" d="M208.173,440.29v-4.466h-.736a.32.32,0,0,1-.308-.308.307.307,0,0,1,.308-.293h.736v-1.9a.321.321,0,0,1,.322-.333.33.33,0,0,1,.333.333v1.9h2.141a.32.32,0,0,1,.308.308.307.307,0,0,1-.308.293h-2.141v4.4a1.2,1.2,0,0,0,1.365,1.325,2.846,2.846,0,0,0,.776-.135.306.306,0,0,1,.293.293.3.3,0,0,1-.213.282,2.782,2.782,0,0,1-.963.175A1.748,1.748,0,0,1,208.173,440.29Z" transform="translate(-158.581 -432.478)" fill="#fff"/>
          <path id="Path_27" data-name="Path 27" d="M226.418,449.411a.282.282,0,0,1-.187-.282.3.3,0,0,1,.308-.307.646.646,0,0,1,.213.055,2.292,2.292,0,0,0,.868.135c.75,0,1.2-.494,1.644-1.512l.04-.095-3.049-6.3a.584.584,0,0,1-.055-.2.334.334,0,0,1,.348-.333.36.36,0,0,1,.348.267l2.728,5.886,2.38-5.912a.336.336,0,0,1,.322-.241.33.33,0,0,1,.333.333.443.443,0,0,1-.04.175l-2.768,6.608c-.6,1.431-1.3,1.94-2.273,1.94A3.233,3.233,0,0,1,226.418,449.411Z" transform="translate(-172.17 -437.88)" fill="#fff"/>
          <path id="Path_28" data-name="Path 28" d="M262.7,436.219v-.026a4.776,4.776,0,1,1,9.551-.029v.026a4.962,4.962,0,0,1-1.109,3.144l.882.736a.567.567,0,0,1,.213.443.522.522,0,0,1-.52.523.575.575,0,0,1-.4-.175l-.911-.816a4.789,4.789,0,0,1-7.7-3.826Zm5.536,1.926a.518.518,0,0,1-.227-.428.534.534,0,0,1,.52-.535.558.558,0,0,1,.4.172l1.431,1.311a4,4,0,0,0,.79-2.449v-.026a3.723,3.723,0,0,0-3.69-3.866,3.68,3.68,0,0,0-3.664,3.84v.026a3.723,3.723,0,0,0,3.69,3.866,3.576,3.576,0,0,0,2.167-.7Z" transform="translate(-198.179 -431.31)" fill="#fff"/>
          <path id="Path_29" data-name="Path 29" d="M308.8,447.17a.319.319,0,0,1-.322.333.323.323,0,0,1-.333-.333v-.989a2.673,2.673,0,0,1-2.46,1.431,2.6,2.6,0,0,1-2.728-2.808v-3.892a.312.312,0,0,1,.322-.333.322.322,0,0,1,.333.333v3.771a2.084,2.084,0,0,0,2.167,2.328,2.34,2.34,0,0,0,2.368-2.434v-3.664a.312.312,0,0,1,.322-.333.322.322,0,0,1,.333.333v6.257Z" transform="translate(-226.868 -437.887)" fill="#fff"/>
          <path id="Path_30" data-name="Path 30" d="M330.31,443.788v-.026a3.526,3.526,0,0,1,3.518-3.572,3.488,3.488,0,0,1,3.492,3.544v.026a3.527,3.527,0,0,1-3.518,3.572A3.487,3.487,0,0,1,330.31,443.788Zm6.3,0v-.026a2.862,2.862,0,0,0-2.808-2.957,2.815,2.815,0,0,0-2.782,2.929v.026a2.862,2.862,0,0,0,2.808,2.957A2.813,2.813,0,0,0,336.61,443.788Z" transform="translate(-246.357 -437.609)" fill="#fff"/>
          <path id="Path_31" data-name="Path 31" d="M360.393,440.29v-4.466h-.736a.32.32,0,0,1-.307-.308.307.307,0,0,1,.307-.293h.736v-1.9a.319.319,0,0,1,.322-.333.33.33,0,0,1,.333.333v1.9h2.141a.32.32,0,0,1,.308.308.307.307,0,0,1-.308.293h-2.141v4.4a1.2,1.2,0,0,0,1.365,1.325,2.847,2.847,0,0,0,.776-.135.306.306,0,0,1,.293.293.3.3,0,0,1-.213.282,2.782,2.782,0,0,1-.963.175A1.748,1.748,0,0,1,360.393,440.29Z" transform="translate(-267.051 -432.478)" fill="#fff"/>
          <path id="Path_32" data-name="Path 32" d="M379.92,431.745a.535.535,0,1,1,.535.549A.537.537,0,0,1,379.92,431.745Zm.216,2.489a.328.328,0,1,1,.655,0v6.26a.312.312,0,0,1-.322.333.323.323,0,0,1-.333-.333Z" transform="translate(-281.709 -431.21)" fill="#fff"/>
          <path id="Path_33" data-name="Path 33" d="M392.483,447.332a3.388,3.388,0,0,1-3.343-3.558v-.026a3.362,3.362,0,0,1,3.236-3.558,3.231,3.231,0,0,1,3.13,3.532.333.333,0,0,1-.322.307h-5.352a2.7,2.7,0,0,0,2.676,2.687,3.021,3.021,0,0,0,2.207-.937.29.29,0,0,1,.213-.095.315.315,0,0,1,.322.307.321.321,0,0,1-.106.227A3.454,3.454,0,0,1,392.483,447.332Zm2.314-3.891a2.529,2.529,0,0,0-2.449-2.647,2.659,2.659,0,0,0-2.515,2.647Z" transform="translate(-288.279 -437.609)" fill="#fff"/>
          <path id="Path_34" data-name="Path 34" d="M417.933,440.633a.328.328,0,1,1,.655,0v.989a2.672,2.672,0,0,1,2.46-1.431A2.6,2.6,0,0,1,423.776,443v3.892a.312.312,0,0,1-.322.333.323.323,0,0,1-.333-.333v-3.771a2.084,2.084,0,0,0-2.167-2.328,2.34,2.34,0,0,0-2.368,2.434v3.664a.311.311,0,0,1-.322.333.323.323,0,0,1-.333-.333v-6.257Z" transform="translate(-308.794 -437.609)" fill="#fff"/>
          <path id="Path_35" data-name="Path 35" d="M445.143,440.29v-4.466h-.736a.32.32,0,0,1-.307-.308.307.307,0,0,1,.307-.293h.736v-1.9a.319.319,0,0,1,.322-.333.33.33,0,0,1,.333.333v1.9h2.141a.32.32,0,0,1,.308.308.307.307,0,0,1-.308.293H445.8v4.4a1.2,1.2,0,0,0,1.365,1.325,2.846,2.846,0,0,0,.776-.135.306.306,0,0,1,.293.293.3.3,0,0,1-.213.282,2.783,2.783,0,0,1-.963.175A1.748,1.748,0,0,1,445.143,440.29Z" transform="translate(-327.443 -432.478)" fill="#fff"/>
        </g>
        <path id="Path_36" data-name="Path 36" d="M225.522,39.131a15.318,15.318,0,0,0-1.69-4.007,11.064,11.064,0,0,0-1.276-7.731,11.846,11.846,0,0,0-6.74-5.308,11.527,11.527,0,0,0-4.912-5.6,15.754,15.754,0,0,0-8.151-1.983l-.376.009c-.8-.256-1.627-.483-2.44-.673a30.266,30.266,0,0,0-14.2.011,27.761,27.761,0,0,0-10.45,4.926c-3.2,2.48-5.148,5.311-5.2,7.568a3.5,3.5,0,0,0,.086.879,7.346,7.346,0,0,0-1.032.514,6.431,6.431,0,0,0-3.159,7.134,4.1,4.1,0,0,0,.368.831,6.735,6.735,0,0,0-.934,1.1l-.092.138v0a6.756,6.756,0,0,0-.971,2.48A6.267,6.267,0,0,0,164.4,41.8a6.01,6.01,0,0,0,.31,1,5.92,5.92,0,0,0,.491.951c.138,9.487,5.886,16.362,11.45,23.01,2.058,2.46,4,4.783,5.676,7.234a1.585,1.585,0,0,0,2.618-1.788c-1.765-2.578-3.848-5.07-5.863-7.478-4.826-5.768-9.416-11.255-10.482-18.251l.129.052a14.291,14.291,0,0,0,5.188.842,50.628,50.628,0,0,0,6.214-.354c7.039,0,11.545.066,14.733,1.023,3.1.931,5.07,2.728,7.039,6.412,1.147,2.147,2.1,3.374,3.047,3.889a2.288,2.288,0,0,0,1.112.29,2.161,2.161,0,0,0,1.969-1.3,4.433,4.433,0,0,0,.333-.848,14.475,14.475,0,0,0,.382-3.791c0-2.36.106-3.518.724-4.136.948-.946,3.541-.943,8.706-.934h1.558c.078,0,.152,0,.23,0l-.138.066a.191.191,0,0,0-.109.149,20.3,20.3,0,0,1-.486,2.538c-1.558,6.056-5.719,11.028-10.068,16.23-1.546,1.848-5.9,6.636-8.648,9.93a3.7,3.7,0,0,1-2.851,1.328l-12.33-.046a4.85,4.85,0,1,0,.06,9.7l13.028-.08a1.68,1.68,0,0,1,1.61,2.193,1.682,1.682,0,0,1-1.589,1.167l-14.83.121a1.586,1.586,0,0,0-.474,3.1,1.646,1.646,0,0,0,.494.075l14.83-.121a4.849,4.849,0,1,0-.06-9.7l-13.028.08a1.681,1.681,0,0,1-.02-3.363l13.442.046,1.914.006a.589.589,0,0,0,.491-.25,0,0,0,0,1,0,0c.46-.673,1.3-1.707,2.308-2.9,2.676-3.162,6.587-7.461,8.082-9.243,5.294-6.329,10.755-12.859,11.39-21.651a4.984,4.984,0,0,0,1.463-1.026,4.782,4.782,0,0,0,.951-1.4,6.447,6.447,0,0,0,.514-2.673A11.281,11.281,0,0,0,225.522,39.131Zm-5.794,5.527c-.707,0-1.391-.006-2.052-.009-4.975-.034-8.571-.06-10.473,1.966-1.434,1.526-1.434,3.894-1.437,5.981a17.791,17.791,0,0,1-.1,2.36,17.575,17.575,0,0,1-1.147-1.9c-1.86-3.478-3.848-5.613-6.447-6.921a20.682,20.682,0,0,0-7.887-1.848c1.966-.868,3.791-1.868,5.656-2.92a2.354,2.354,0,0,0,.451.043,2.423,2.423,0,1,0-2.423-2.423v.075a44.267,44.267,0,0,1-7.593,3.55A37.816,37.816,0,0,1,173.906,44.4a9.3,9.3,0,0,1-5.24-1.244,3.172,3.172,0,0,1-1.368-1.972,3.7,3.7,0,0,1,1.676-3.768l.078.017a23.63,23.63,0,0,0,12.934-.854,41.088,41.088,0,0,0,4.869-2.029,2.423,2.423,0,1,0-1.434-2.592c-4.877,2.363-9.855,3.828-15.6,2.6-.21-.043-.428-.095-.652-.149-.29-.089-.466-.575-.422-1.184.152-2.133,2.141-3.36,3.929-3.6h0c.089-.011.172-.023.253-.029a23.489,23.489,0,0,0,5.323-1.158,2.424,2.424,0,1,0-1.276-2.7,21.228,21.228,0,0,1-2.934.719c-.313.055-.632.1-.948.138-.144-.2-.046-.589.032-.825.782-2.334,4.343-5.2,7.458-6.826a26.213,26.213,0,0,1,12.157-2.963c.765,0,1.555.032,2.368.1q-.591.246-1.207.537-.905.431-1.8.923a2.423,2.423,0,1,0,1.061,2.782,20.142,20.142,0,0,1,5.794-2.371,19.154,19.154,0,0,1,3.4-.451c4.294-.164,7.766,1.256,9.709,3.929a17.412,17.412,0,0,0-2.153.02h-.02a24.128,24.128,0,0,0-5.179.974q-1.073.319-2.115.707a2.422,2.422,0,1,0,.776,2.888q1.086-.414,2.19-.744a18.608,18.608,0,0,1,6.7-.845,9.985,9.985,0,0,1,6.306,2.641,8.266,8.266,0,0,1,2.5,5.6,10.974,10.974,0,0,0-2.463-1.035,13.759,13.759,0,0,0-4.305-.477,2.421,2.421,0,1,0,.454,3h.017a10.156,10.156,0,0,1,4.466.908,6.489,6.489,0,0,1,1.9,1.38c.773.891,2.463,4.892,1.555,6.909h0a2.222,2.222,0,0,1-1.857,1.227A8.633,8.633,0,0,1,219.728,44.658Z" transform="translate(-128.035 -13.004)" fill="#fff"/>
      </g>
    </g>
  </g>
</svg>
