<svg id="Logo" xmlns="http://www.w3.org/2000/svg" xmlns:xlink="http://www.w3.org/1999/xlink" width="100" height="100" viewBox="0 0 100 100">
  <defs>
    <clipPath id="clip-path">
      <rect id="Rectangle_856" data-name="Rectangle 856" width="100" height="100" rx="24" fill="#6a5ae0" opacity="0"/>
    </clipPath>
    <clipPath id="clip-path-2">
      <path id="Union" d="M47.466,62.518h0a5.934,5.934,0,0,1-4.243-1.771,6.04,6.04,0,0,1,.019-8.505,5.967,5.967,0,0,1,8.466.02,6.039,6.039,0,0,1-.019,8.5A5.935,5.935,0,0,1,47.466,62.518ZM37.282,51.359a5.934,5.934,0,0,1-4.243-1.771l-2.479-2.5a24.015,24.015,0,0,1-5.429.887c-.374.018-.754.027-1.129.027A24,24,0,1,1,47.48,28.966a3.9,3.9,0,0,1-3.974,3.053,4.719,4.719,0,0,1-1.885-.393A5.15,5.15,0,0,1,39,28.949a8.019,8.019,0,0,1-.644-3.869A14.4,14.4,0,1,0,24,38.4c.226,0,.454-.005.68-.016a14.331,14.331,0,0,0,5.612-1.43,8.059,8.059,0,0,1,3.491-.835A5.508,5.508,0,0,1,36.87,37a5.973,5.973,0,0,1,1.839,1.266L41.524,41.1a6.04,6.04,0,0,1-.019,8.505A5.936,5.936,0,0,1,37.282,51.359Z" fill="#fff" opacity="0"/>
    </clipPath>
  </defs>
  <g id="Mask_Group" data-name="Mask Group">
    <rect id="Rectangle_856-2" data-name="Rectangle 856" width="100" height="100" rx="24" fill="#6a5ae0" opacity="0"/>
    <g id="Mask_Group-2" data-name="Mask Group" clip-path="url(#clip-path)">
      <path id="Vector" d="M67,39.123a52.667,52.667,0,0,1-15.612,37.39A53.518,53.518,0,0,1,13.7,92c-.729,0-1.444-.014-2.173-.041A54.263,54.263,0,0,1,0,90.24c.729-.368,1.444-.737,2.16-1.133.014,0,.028-.014.055-.027l.014-.014c.757-.409,1.5-.819,2.228-1.242.179-.109.358-.2.536-.3.688-.409,1.375-.819,2.049-1.255a5.91,5.91,0,0,0,.578-.355c.523-.314,1.045-.655,1.554-1,.358-.232.729-.478,1.073-.71.523-.355,1.032-.709,1.541-1.078.344-.232.66-.464.99-.723.44-.3.867-.628,1.293-.955.385-.273.757-.559,1.128-.86.523-.4,1.032-.805,1.541-1.242q.33-.246.66-.532c.55-.45,1.087-.914,1.623-1.392.289-.246.578-.491.867-.764.316-.273.619-.546.922-.832.578-.518,1.142-1.064,1.706-1.61a1.451,1.451,0,0,0,.206-.2c.55-.519,1.087-1.064,1.609-1.61.371-.355.715-.723,1.045-1.092.4-.4.77-.805,1.142-1.215q.33-.348.619-.7c.5-.546.977-1.105,1.458-1.665.247-.287.5-.587.729-.887.358-.409.7-.819,1.018-1.242.33-.4.647-.805.949-1.215.289-.355.564-.723.825-1.078.358-.464.7-.928,1.032-1.406s.688-.955,1.018-1.446a7.162,7.162,0,0,0,.454-.669c.468-.682.922-1.378,1.362-2.074q.846-1.289,1.609-2.62c.234-.382.454-.764.674-1.146a87.528,87.528,0,0,0,4.759-9.661c.206-.464.4-.928.578-1.405.22-.5.413-1.024.605-1.542.165-.423.33-.86.481-1.3.179-.478.344-.969.509-1.446.605-1.747,1.155-3.507,1.637-5.295.124-.45.248-.887.358-1.337.083-.286.151-.559.22-.846l.33-1.392c.44-1.9.812-3.807,1.128-5.745l.206-1.31c.028-.2.055-.4.083-.6q.124-.778.206-1.556c.1-.778.193-1.556.261-2.333.028-.2.041-.409.055-.614.055-.532.1-1.078.138-1.61s.069-1.092.1-1.637c.028-.382.041-.764.055-1.16q.083-1.883.083-3.766c0-.641,0-1.269-.028-1.9,0-.327,0-.641-.014-.969-.041-1.133-.1-2.252-.179-3.371V3.125c-.014-.273-.028-.546-.055-.819-.055-.751-.124-1.487-.193-2.238A.162.162,0,0,0,49.573,0a53.473,53.473,0,0,1,5.186,5.39l.041.041a.047.047,0,0,1,.014.027A52.417,52.417,0,0,1,67,39.123Z" transform="translate(36 33)" fill="#ff8fa2"/>
      <path id="Vector-2" data-name="Vector" d="M71,23.158a90.067,90.067,0,0,1-12.84,46.37,90.889,90.889,0,0,1-34.938,33.3.12.12,0,0,1-.069.041l-.014.014c-.715.382-1.429.751-2.144,1.119A52.389,52.389,0,0,1,8.19,98.76,53.72,53.72,0,0,1,0,93c.481-.5.948-1.01,1.415-1.528l.014-.014c0-.014.014-.027.028-.041H1.47A89.841,89.841,0,0,0,24.775,30.95,90.571,90.571,0,0,0,20.24,2.634h-.014c0-.027-.014-.055-.014-.082H20.2a.238.238,0,0,1-.014-.068C19.911,1.651,19.622.819,19.32,0H34.682A53.3,53.3,0,0,1,70.519,13.756c.11,1.037.192,2.074.261,3.125C70.931,18.955,71,21.043,71,23.158Z" transform="translate(15 19)" fill="#9087e5"/>
      <path id="Vector-3" data-name="Vector" d="M43,30.95c0,.914-.014,1.829-.041,2.729-.014.587-.041,1.16-.068,1.747q-.164,3.521-.613,7c-.068.6-.15,1.187-.245,1.774-.1.723-.218,1.433-.341,2.156-.109.682-.232,1.351-.368,2.033-.027.164-.068.327-.1.491-.109.559-.232,1.133-.354,1.692a88.225,88.225,0,0,1-2.359,8.611c-.177.56-.368,1.105-.559,1.638a1.065,1.065,0,0,1-.068.191c-.191.559-.382,1.092-.586,1.638-.055.164-.123.341-.191.518-.218.587-.45,1.16-.682,1.733-.259.655-.532,1.31-.818,1.951-.286.669-.586,1.337-.886,2.006-.286.614-.586,1.228-.873,1.829-.313.641-.627,1.269-.954,1.883s-.654,1.242-1,1.856-.682,1.228-1.022,1.829-.709,1.215-1.077,1.815-.736,1.187-1.118,1.774c-.75,1.174-1.527,2.333-2.331,3.466s-1.65,2.252-2.495,3.357q-1.922,2.436-3.981,4.749h-.014c-.014.014-.014.014-.014.027a.014.014,0,0,1,0,.01.014.014,0,0,1-.01,0c-.464.519-.941,1.037-1.418,1.542a53.072,53.072,0,0,1-5.971-6.032.238.238,0,0,0-.054-.068A52.7,52.7,0,0,1,0,52.88V0H37.588c.3.819.586,1.638.845,2.47l.014.014a.245.245,0,0,0,.014.068h.014v.041a.051.051,0,0,0,0,.022.053.053,0,0,0,.011.019H38.5a.673.673,0,0,0,.055.15l.164.532c.463,1.447.886,2.907,1.268,4.394.273,1,.518,2.02.75,3.043.423,1.856.791,3.753,1.1,5.677.068.464.15.914.2,1.378.164,1.133.313,2.265.436,3.412.055.423.1.86.123,1.283.082.791.136,1.6.191,2.388Q43,27.9,43,30.95Z" transform="translate(-3 19)" fill="#c4d0fb"/>
    </g>
  </g>
  <rect id="Rectangle_857" data-name="Rectangle 857" width="100" height="92" rx="24" fill="#09074a"/>
  <g id="Mask_Group-3" data-name="Mask Group" transform="translate(23 19)">
    <path id="Union-2" data-name="Union" d="M47.466,62.518h0a5.934,5.934,0,0,1-4.243-1.771,6.04,6.04,0,0,1,.019-8.505,5.967,5.967,0,0,1,8.466.02,6.039,6.039,0,0,1-.019,8.5A5.935,5.935,0,0,1,47.466,62.518ZM37.282,51.359a5.934,5.934,0,0,1-4.243-1.771l-2.479-2.5a24.015,24.015,0,0,1-5.429.887c-.374.018-.754.027-1.129.027A24,24,0,1,1,47.48,28.966a3.9,3.9,0,0,1-3.974,3.053,4.719,4.719,0,0,1-1.885-.393A5.15,5.15,0,0,1,39,28.949a8.019,8.019,0,0,1-.644-3.869A14.4,14.4,0,1,0,24,38.4c.226,0,.454-.005.68-.016a14.331,14.331,0,0,0,5.612-1.43,8.059,8.059,0,0,1,3.491-.835A5.508,5.508,0,0,1,36.87,37a5.973,5.973,0,0,1,1.839,1.266L41.524,41.1a6.04,6.04,0,0,1-.019,8.505A5.936,5.936,0,0,1,37.282,51.359Z" fill="#fff" opacity="0"/>
    <g id="Mask_Group-4" data-name="Mask Group" clip-path="url(#clip-path-2)">
      <path id="Vector-4" data-name="Vector" d="M17.483,59,66,10.2,55.51,0,0,56.338Z" transform="translate(15 23)" fill="#fff"/>
      <path id="Vector-5" data-name="Vector" d="M16.954,56,64,9.684,53.828,0,0,53.474Z" transform="translate(6 13)" fill="#fff"/>
      <path id="Vector-6" data-name="Vector" d="M9.631,65.838l55.6-55.374L55.6,0,0,55.374Z" transform="translate(-1.199 1.245) rotate(-0.323)" fill="#fff"/>
      <path id="Vector-7" data-name="Vector" d="M7.821,62,63,6.156,48.662,0,0,49.248Z" transform="translate(-9 -4)" fill="#fff"/>
      <path id="Vector-8" data-name="Vector" d="M0,50,50,0,23.214,2.679,0,28.125Z" transform="translate(-9 -4)" fill="#fff"/>
    </g>
  </g>
</svg>
