<svg xmlns="http://www.w3.org/2000/svg" width="61.646" height="81.086" viewBox="0 0 61.646 81.086">
  <path id="Path_7" data-name="Path 7" d="M194.86,42.075a2.44,2.44,0,0,1-.96-.2,41.089,41.089,0,0,1-4.869,2.029,23.626,23.626,0,0,1-12.933.854l-.078-.017a3.706,3.706,0,0,0-1.676,3.768,3.172,3.172,0,0,0,1.368,1.972,9.3,9.3,0,0,0,5.24,1.244,37.893,37.893,0,0,0,12.373-1.788,44.265,44.265,0,0,0,7.593-3.55v-.075a2.423,2.423,0,1,1,2.423,2.423,2.311,2.311,0,0,1-.451-.043c-1.868,1.052-3.69,2.052-5.656,2.92a20.71,20.71,0,0,1,7.887,1.848c2.6,1.308,4.587,3.443,6.447,6.921a17.571,17.571,0,0,0,1.147,1.9,18.835,18.835,0,0,0,.1-2.36c0-2.087,0-4.455,1.437-5.981,1.9-2.023,5.5-2,10.473-1.966q.992.009,2.052.009a6.606,6.606,0,0,0,1.1-.083,2.222,2.222,0,0,0,1.857-1.227h0c.908-2.018-.782-6.018-1.555-6.909a6.451,6.451,0,0,0-1.9-1.38,10.156,10.156,0,0,0-4.466-.908h-.017a2.425,2.425,0,1,1-.454-3,13.749,13.749,0,0,1,4.305.477,10.974,10.974,0,0,1,2.463,1.035,8.13,8.13,0,0,0-.244-1.693,8.272,8.272,0,0,0-2.256-3.909,9.961,9.961,0,0,0-6.306-2.641,18.615,18.615,0,0,0-6.7.845c-.736.218-1.466.468-2.19.744a2.425,2.425,0,1,1-.776-2.888c.7-.256,1.4-.494,2.115-.707a24.127,24.127,0,0,1,5.179-.974h.02a18.62,18.62,0,0,1,2.153-.02c-1.943-2.67-5.415-4.093-9.709-3.929a19.154,19.154,0,0,0-3.4.451,20.176,20.176,0,0,0-5.794,2.371,2.422,2.422,0,1,1-1.061-2.782c.6-.328,1.2-.638,1.8-.923.414-.2.813-.374,1.207-.537q-1.216-.1-2.368-.1a26.213,26.213,0,0,0-12.157,2.963c-3.116,1.627-6.677,4.5-7.458,6.826-.08.239-.175.629-.032.825.316-.037.635-.083.948-.138A21.128,21.128,0,0,0,184,33.048a2.42,2.42,0,1,1,1.276,2.7,23.455,23.455,0,0,1-5.323,1.158c-.081.009-.164.017-.253.029h0c-1.785.239-3.777,1.466-3.929,3.6-.043.609.129,1.1.423,1.184.224.055.445.106.652.149,5.745,1.23,10.723-.236,15.6-2.6a2.423,2.423,0,1,1,2.408,2.8Z" transform="translate(-171.4 -20.334)" fill="#52be99"/>
  <path id="Path_36" data-name="Path 36" d="M225.522,39.131a15.318,15.318,0,0,0-1.69-4.007,11.064,11.064,0,0,0-1.276-7.731,11.846,11.846,0,0,0-6.74-5.308,11.527,11.527,0,0,0-4.912-5.6,15.754,15.754,0,0,0-8.151-1.983l-.376.009c-.8-.256-1.627-.483-2.44-.673a30.266,30.266,0,0,0-14.2.011,27.761,27.761,0,0,0-10.45,4.926c-3.2,2.48-5.148,5.311-5.2,7.568a3.5,3.5,0,0,0,.086.879,7.346,7.346,0,0,0-1.032.514,6.431,6.431,0,0,0-3.159,7.134,4.1,4.1,0,0,0,.368.831,6.735,6.735,0,0,0-.934,1.1l-.092.138v0a6.756,6.756,0,0,0-.971,2.48A6.267,6.267,0,0,0,164.4,41.8a6.01,6.01,0,0,0,.31,1,5.92,5.92,0,0,0,.491.951c.138,9.487,5.886,16.362,11.45,23.01,2.058,2.46,4,4.783,5.676,7.234a1.585,1.585,0,0,0,2.618-1.788c-1.765-2.578-3.848-5.07-5.863-7.478-4.826-5.768-9.416-11.255-10.482-18.251l.129.052a14.291,14.291,0,0,0,5.188.842,50.628,50.628,0,0,0,6.214-.354c7.039,0,11.545.066,14.733,1.023,3.1.931,5.07,2.728,7.039,6.412,1.147,2.147,2.1,3.374,3.047,3.889a2.288,2.288,0,0,0,1.112.29,2.161,2.161,0,0,0,1.969-1.3,4.433,4.433,0,0,0,.333-.848,14.475,14.475,0,0,0,.382-3.791c0-2.36.106-3.518.724-4.136.948-.946,3.541-.943,8.706-.934h1.558c.078,0,.152,0,.23,0l-.138.066a.191.191,0,0,0-.109.149,20.3,20.3,0,0,1-.486,2.538c-1.558,6.056-5.719,11.028-10.068,16.23-1.546,1.848-5.9,6.636-8.648,9.93a3.7,3.7,0,0,1-2.851,1.328l-12.33-.046a4.85,4.85,0,1,0,.06,9.7l13.028-.08a1.68,1.68,0,0,1,1.61,2.193,1.682,1.682,0,0,1-1.589,1.167l-14.83.121a1.586,1.586,0,0,0-.474,3.1,1.646,1.646,0,0,0,.494.075l14.83-.121a4.849,4.849,0,1,0-.06-9.7l-13.028.08a1.681,1.681,0,0,1-.02-3.363l13.442.046,1.914.006a.589.589,0,0,0,.491-.25,0,0,0,0,1,0,0c.46-.673,1.3-1.707,2.308-2.9,2.676-3.162,6.587-7.461,8.082-9.243,5.294-6.329,10.755-12.859,11.39-21.651a4.984,4.984,0,0,0,1.463-1.026,4.782,4.782,0,0,0,.951-1.4,6.447,6.447,0,0,0,.514-2.673A11.281,11.281,0,0,0,225.522,39.131Zm-5.794,5.527c-.707,0-1.391-.006-2.052-.009-4.975-.034-8.571-.06-10.473,1.966-1.434,1.526-1.434,3.894-1.437,5.981a17.791,17.791,0,0,1-.1,2.36,17.575,17.575,0,0,1-1.147-1.9c-1.86-3.478-3.848-5.613-6.447-6.921a20.682,20.682,0,0,0-7.887-1.848c1.966-.868,3.791-1.868,5.656-2.92a2.354,2.354,0,0,0,.451.043,2.423,2.423,0,1,0-2.423-2.423v.075a44.267,44.267,0,0,1-7.593,3.55A37.816,37.816,0,0,1,173.906,44.4a9.3,9.3,0,0,1-5.24-1.244,3.172,3.172,0,0,1-1.368-1.972,3.7,3.7,0,0,1,1.676-3.768l.078.017a23.63,23.63,0,0,0,12.934-.854,41.088,41.088,0,0,0,4.869-2.029,2.423,2.423,0,1,0-1.434-2.592c-4.877,2.363-9.855,3.828-15.6,2.6-.21-.043-.428-.095-.652-.149-.29-.089-.466-.575-.422-1.184.152-2.133,2.141-3.36,3.929-3.6h0c.089-.011.172-.023.253-.029a23.489,23.489,0,0,0,5.323-1.158,2.424,2.424,0,1,0-1.276-2.7,21.228,21.228,0,0,1-2.934.719c-.313.055-.632.1-.948.138-.144-.2-.046-.589.032-.825.782-2.334,4.343-5.2,7.458-6.826a26.213,26.213,0,0,1,12.157-2.963c.765,0,1.555.032,2.368.1q-.591.246-1.207.537-.905.431-1.8.923a2.423,2.423,0,1,0,1.061,2.782,20.142,20.142,0,0,1,5.794-2.371,19.154,19.154,0,0,1,3.4-.451c4.294-.164,7.766,1.256,9.709,3.929a17.412,17.412,0,0,0-2.153.02h-.02a24.128,24.128,0,0,0-5.179.974q-1.073.319-2.115.707a2.422,2.422,0,1,0,.776,2.888q1.086-.414,2.19-.744a18.608,18.608,0,0,1,6.7-.845,9.985,9.985,0,0,1,6.306,2.641,8.266,8.266,0,0,1,2.5,5.6,10.974,10.974,0,0,0-2.463-1.035,13.759,13.759,0,0,0-4.305-.477,2.421,2.421,0,1,0,.454,3h.017a10.156,10.156,0,0,1,4.466.908,6.489,6.489,0,0,1,1.9,1.38c.773.891,2.463,4.892,1.555,6.909h0a2.222,2.222,0,0,1-1.857,1.227A8.633,8.633,0,0,1,219.728,44.658Z" transform="translate(-164.264 -13.004)" fill="#fff"/>
</svg>
