<svg xmlns="http://www.w3.org/2000/svg" width="55" height="55" viewBox="0 0 44 44">
  <path id="Ellipse" d="M44,22A22,22,0,1,1,22,0,22,22,0,0,1,44,22Z" fill="#fff"/>
  <g id="Icon" transform="translate(10 10)">
    <path id="Vector" d="M3,12A3,3,0,0,1,0,9V3A3,3,0,0,1,3,0H13V2H3A1,1,0,0,0,2,3V9a1,1,0,0,0,1,1H13a1,1,0,0,0,1-1h2a3,3,0,0,1-3,3ZM14,9V3h2V9Zm0-6a1,1,0,0,0-1-1V0a3,3,0,0,1,3,3Z" transform="translate(4 10)" fill="#0c092a"/>
    <path id="Vector-2" data-name="Vector" d="M0,2A2,2,0,0,1,2,0V0A2,2,0,1,1,0,2Z" transform="translate(10 14)" fill="#0c092a"/>
    <path id="Vector-3" data-name="Vector" d="M8,9V5h2V9A1,1,0,0,1,8,9ZM0,9V5A5,5,0,0,1,5,0V2A3,3,0,0,0,2,5V9A1,1,0,0,1,0,9ZM8,5a3,3,0,0,0-.878-2.121L8.536,1.464A5,5,0,0,1,10,5ZM5,2V0A5,5,0,0,1,8.536,1.464L7.122,2.879A3,3,0,0,0,5,2Z" transform="translate(7 2)" fill="#0c092a"/>
  </g>
</svg>
