<svg xmlns="http://www.w3.org/2000/svg" width="32" height="32" viewBox="0 0 32 32">
  <path id="Ellipse" d="M32,16A16,16,0,1,1,16,0,16,16,0,0,1,32,16Z" fill="#ff8fa2"/>
  <g id="Icon" transform="translate(6 6)">
    <path id="Vector" d="M9.333,17A1.834,1.834,0,0,1,7.5,15.167v-.833a.666.666,0,0,0-1.138-.472L4.947,12.448A2.667,2.667,0,0,1,9.5,14.333V15h2.166V12.667h0a1.833,1.833,0,0,1,.537-1.3l1.3,1.3-1.3-1.3a1.833,1.833,0,0,1,1.3-.537h.833a.668.668,0,0,0,.472-.2l1.414,1.414a2.666,2.666,0,0,1-1.885.781h-.667v2.334H11.833l1.3,1.3a1.835,1.835,0,0,1-1.3.537Zm-7.5,0A1.834,1.834,0,0,1,0,15.167v-2.5a1.834,1.834,0,0,1,1.833-1.833v0h.833v2H2V15H4.167v-.667h2v.833h0a1.833,1.833,0,0,1-.537,1.3l-1.3-1.3,1.3,1.3a1.833,1.833,0,0,1-1.3.537Zm10-1.833h1.833a1.832,1.832,0,0,1-.536,1.3Zm-7.666-.833a2.667,2.667,0,0,1,.78-1.885l1.415,1.414a.666.666,0,0,0-.2.472Zm-1.5-3.5a.666.666,0,1,0,0-1.333H1.833A1.834,1.834,0,0,1,0,7.667v-2.5A1.833,1.833,0,0,1,1.833,3.334H4.167V2.667A2.666,2.666,0,0,1,6.834,0V2a.667.667,0,0,0-.667.667V3.5A1.834,1.834,0,0,1,4.333,5.333v0H2V7.5h.667a2.667,2.667,0,0,1,0,5.333Zm12.138-.2a.666.666,0,0,0,.2-.472h2a2.664,2.664,0,0,1-.781,1.885Zm.2-.472a.664.664,0,0,0-.2-.471l1.414-1.415A2.666,2.666,0,0,1,17,10.166ZM14.333,9.5v-2a2.666,2.666,0,0,1,1.885.781L14.805,9.7A.668.668,0,0,0,14.333,9.5Zm-.833,0V7.667l-1.3,1.3a1.833,1.833,0,0,1-.537-1.3h0V5.333H9.333V3.5l-1.3,1.3A1.833,1.833,0,0,1,7.5,3.5h0V2.667h2v.667h2.333V5.167h1.833V7.5h.667v2Zm-1.3-.537,1.3-1.3V9.5A1.833,1.833,0,0,1,12.2,8.963ZM8.037,4.8l1.3-1.3V5.333A1.833,1.833,0,0,1,8.037,4.8Zm3.8.371,1.3-1.3a1.833,1.833,0,0,1,.536,1.3Zm0-1.833a1.834,1.834,0,0,1,1.3.536l-1.3,1.3ZM7.5,2.667A.668.668,0,0,0,7.3,2.2L8.719.781A2.669,2.669,0,0,1,9.5,2.667ZM6.834,2V0A2.667,2.667,0,0,1,8.719.781L7.3,2.2A.666.666,0,0,0,6.834,2Z" transform="translate(1.5 1.5)" fill="#fff"/>
  </g>
</svg>
