<svg xmlns="http://www.w3.org/2000/svg" width="32" height="32" viewBox="0 0 32 32">
  <path id="Ellipse" d="M32,16A16,16,0,1,1,16,0,16,16,0,0,1,32,16Z" fill="#6a5ae0"/>
  <g id="Icon" transform="translate(6 6)">
    <path id="Vector" d="M3.335,9.376a5.2,5.2,0,0,1,.52-2.528l1.789.895a3.194,3.194,0,0,0-.311,1.548,1,1,0,0,1-.957,1.041H4.331A1,1,0,0,1,3.335,9.376Zm.52-2.528A3.751,3.751,0,0,1,5.576,5.095L6,6V6l-.424-.9c.031-.014.061-.027.093-.039a1.5,1.5,0,0,0,.751-.582L8.083,5.583A3.5,3.5,0,0,1,6.392,6.922a1.8,1.8,0,0,0-.748.821ZM6.419,4.474a1.5,1.5,0,0,0,.249-.917c0-.019,0-.038,0-.057a1.336,1.336,0,0,0-.5-1.009L7.463.973a3.335,3.335,0,0,1,1.2,2.5,3.494,3.494,0,0,1-.584,2.108ZM0,3.5A3.332,3.332,0,0,1,1.2.973,4.179,4.179,0,0,1,3.917,0V2A2.183,2.183,0,0,0,2.5,2.491,1.339,1.339,0,0,0,2,3.5a1,1,0,0,1-2,0ZM4.75,2V0A4.177,4.177,0,0,1,7.463.973l-1.3,1.518A2.182,2.182,0,0,0,4.75,2ZM3.917,2V0H4.75V2Z" transform="translate(5.667 3.167)" fill="#fff"/>
    <path id="Vector-2" data-name="Vector" d="M0,1.008V1H2v.008a1,1,0,0,1-2,0ZM0,1A1,1,0,0,1,2,1Z" transform="translate(9 14.833)" fill="#fff"/>
  </g>
</svg>
