<svg xmlns="http://www.w3.org/2000/svg" width="55" height="55" viewBox="0 0 44 44">
  <path id="Ellipse" d="M44,22A22,22,0,1,1,22,0,22,22,0,0,1,44,22Z" fill="#fff"/>
  <g id="Icon" transform="translate(10 10)">
    <path id="Vector" d="M0,5A5,5,0,0,1,5,0V2A3,3,0,1,0,8,5,3,3,0,0,0,5,2V0A5,5,0,1,1,0,5Z" transform="translate(7 2)" fill="#0c092a"/>
    <path id="Vector_1" data-name="Vector 1" d="M14.8,7.813V9H1.193A1.187,1.187,0,0,1,0,7.78,9.246,9.246,0,0,1,1.22,3.469C2.331,1.613,4.395,0,8,0V2C5.116,2,3.7,3.228,2.937,4.5A6.928,6.928,0,0,0,2.077,7H13.92a6.926,6.926,0,0,0-.86-2.5C12.3,3.228,10.882,2,8,2V0c3.6,0,5.668,1.613,6.779,3.469A9.257,9.257,0,0,1,16,7.78L14.8,7.813h0L16,7.78A1.188,1.188,0,0,1,14.8,9Zm-13.611,0L0,7.78Z" transform="translate(4.001 13)" fill="#0c092a"/>
  </g>
</svg>
